<svg width="235" height="145" viewBox="0 0 235 145" fill="none" xmlns="http://www.w3.org/2000/svg">
<path d="M193.9 107.1C180.1 107.1 173.2 100.4 173.2 87V68.2H169C165.067 68.2 163.1 66.3333 163.1 62.6C163.1 58.8 165.067 56.9 169 56.9H173.2V49.3C173.2 44.1667 175.733 41.6 180.8 41.6C185.8 41.6 188.3 44.1667 188.3 49.3V56.9H197.8C201.667 56.9 203.6 58.8 203.6 62.6C203.6 66.3333 201.667 68.2 197.8 68.2H188.3V86.4C188.3 89.2 188.933 91.3 190.2 92.7C191.533 94.1 193.633 94.8 196.5 94.8C197.5 94.8 198.433 94.7 199.3 94.5C200.167 94.3 200.967 94.1667 201.7 94.1C202.633 94.0333 203.4 94.3333 204 95C204.6 95.6667 204.9 97.0333 204.9 99.1C204.9 100.767 204.633 102.2 204.1 103.4C203.567 104.533 202.633 105.367 201.3 105.9C200.433 106.233 199.233 106.5 197.7 106.7C196.233 106.967 194.967 107.1 193.9 107.1Z" fill="#6CB893"/>
<path d="M79.1999 104.9C76.6666 104.9 74.7332 104.2 73.3999 102.8C72.0666 101.4 71.3999 99.4333 71.3999 96.9V41.4C71.3999 36.1333 74.0332 33.5 79.2999 33.5H103.6C111.467 33.5 117.533 35.5 121.8 39.5C126.067 43.4333 128.2 48.9333 128.2 56C128.2 63.0667 126.067 68.6 121.8 72.6C117.533 76.6 111.467 78.6 103.6 78.6H86.8999V96.9C86.8999 99.4333 86.2332 101.4 84.8999 102.8C83.6332 104.2 81.7332 104.9 79.1999 104.9ZM86.8999 66.6H101C109.2 66.6 113.3 63.0667 113.3 56C113.3 49.0667 109.2 45.6 101 45.6H86.8999V66.6Z" fill="#6CB893"/>
<ellipse cx="140.5" cy="78" rx="26.5" ry="26" fill="#F5F5F5"/>
<path d="M145.3 107.1C139.5 107.1 134.5 106.067 130.3 104C126.167 101.867 122.967 98.9 120.7 95.1C118.5 91.2333 117.4 86.7 117.4 81.5C117.4 76.4333 118.467 72 120.6 68.2C122.8 64.3333 125.767 61.3333 129.5 59.2C133.3 57 137.667 55.9 142.6 55.9C149.733 55.9 155.4 58.1667 159.6 62.7C163.8 67.1667 165.9 73.2333 165.9 80.9C165.9 83.4333 164.333 84.7 161.2 84.7H131.8C132.333 88.5667 133.733 91.4 136 93.2C138.333 94.9333 141.533 95.8 145.6 95.8C147.2 95.8 149 95.6333 151 95.3C153.067 94.9 155.033 94.2333 156.9 93.3C158.833 92.3667 160.467 92.2 161.8 92.8C163.133 93.3333 164.033 94.2667 164.5 95.6C165.033 96.9333 165.033 98.3333 164.5 99.8C164.033 101.2 162.933 102.367 161.2 103.3C158.867 104.567 156.267 105.5 153.4 106.1C150.6 106.767 147.9 107.1 145.3 107.1ZM143.2 65.9C140 65.9 137.4 66.8667 135.4 68.8C133.467 70.7333 132.267 73.4333 131.8 76.9H153.4C153 69.5667 149.6 65.9 143.2 65.9Z" fill="#6CB893"/>
<g filter="url(#filter0_i_1333_8355)">
<path d="M138.82 129.16C137.967 129.16 137.54 128.72 137.54 127.84V116.06C137.54 115.18 137.967 114.74 138.82 114.74C139.673 114.74 140.1 115.18 140.1 116.06V120.78H147.36V116.06C147.36 115.18 147.787 114.74 148.64 114.74C149.493 114.74 149.92 115.18 149.92 116.06V127.84C149.92 128.72 149.493 129.16 148.64 129.16C147.787 129.16 147.36 128.72 147.36 127.84V122.92H140.1V127.84C140.1 128.72 139.673 129.16 138.82 129.16ZM159.329 129.2C157.969 129.2 156.775 128.9 155.749 128.3C154.735 127.7 153.949 126.86 153.389 125.78C152.829 124.687 152.549 123.407 152.549 121.94C152.549 120.46 152.829 119.18 153.389 118.1C153.949 117.02 154.735 116.187 155.749 115.6C156.762 115 157.955 114.7 159.329 114.7C160.702 114.7 161.895 115 162.909 115.6C163.922 116.187 164.709 117.02 165.269 118.1C165.829 119.18 166.109 120.453 166.109 121.92C166.109 123.4 165.829 124.687 165.269 125.78C164.709 126.86 163.922 127.7 162.909 128.3C161.895 128.9 160.702 129.2 159.329 129.2ZM159.329 127C160.622 127 161.629 126.553 162.349 125.66C163.069 124.767 163.429 123.527 163.429 121.94C163.429 120.34 163.069 119.1 162.349 118.22C161.642 117.34 160.635 116.9 159.329 116.9C158.035 116.9 157.029 117.34 156.309 118.22C155.589 119.1 155.229 120.34 155.229 121.94C155.229 123.527 155.589 124.767 156.309 125.66C157.029 126.553 158.035 127 159.329 127ZM174.572 129.2C172.639 129.2 171.159 128.7 170.132 127.7C169.119 126.687 168.612 125.193 168.612 123.22V116.04C168.612 115.173 169.039 114.74 169.892 114.74C170.745 114.74 171.172 115.173 171.172 116.04V123.2C171.172 124.467 171.459 125.42 172.032 126.06C172.619 126.687 173.465 127 174.572 127C176.825 127 177.952 125.733 177.952 123.2V116.04C177.952 115.173 178.379 114.74 179.232 114.74C180.072 114.74 180.492 115.173 180.492 116.04V123.22C180.492 125.193 179.992 126.687 178.992 127.7C177.992 128.7 176.519 129.2 174.572 129.2ZM188.338 129.2C187.444 129.2 186.571 129.1 185.718 128.9C184.878 128.7 184.144 128.4 183.518 128C183.211 127.8 183.024 127.553 182.958 127.26C182.891 126.967 182.911 126.693 183.018 126.44C183.138 126.173 183.318 125.993 183.558 125.9C183.811 125.793 184.098 125.84 184.418 126.04C185.004 126.387 185.624 126.64 186.278 126.8C186.931 126.96 187.618 127.04 188.338 127.04C189.391 127.04 190.158 126.867 190.638 126.52C191.118 126.16 191.358 125.7 191.358 125.14C191.358 124.673 191.184 124.307 190.838 124.04C190.504 123.773 189.924 123.553 189.098 123.38L186.898 122.92C184.391 122.387 183.138 121.1 183.138 119.06C183.138 118.18 183.371 117.413 183.838 116.76C184.304 116.107 184.951 115.6 185.778 115.24C186.604 114.88 187.558 114.7 188.638 114.7C189.438 114.7 190.198 114.8 190.918 115C191.638 115.2 192.284 115.493 192.858 115.88C193.124 116.067 193.284 116.3 193.338 116.58C193.391 116.847 193.357 117.1 193.237 117.34C193.118 117.567 192.924 117.727 192.658 117.82C192.404 117.9 192.104 117.84 191.758 117.64C191.264 117.36 190.764 117.16 190.258 117.04C189.751 116.92 189.204 116.86 188.618 116.86C187.698 116.86 186.978 117.053 186.458 117.44C185.938 117.827 185.678 118.333 185.678 118.96C185.678 119.44 185.838 119.827 186.158 120.12C186.478 120.4 187.024 120.62 187.798 120.78L189.978 121.24C191.298 121.52 192.278 121.96 192.918 122.56C193.571 123.16 193.898 123.96 193.898 124.96C193.898 125.8 193.671 126.54 193.218 127.18C192.764 127.82 192.118 128.32 191.278 128.68C190.451 129.027 189.471 129.2 188.338 129.2ZM197.455 129C196.548 129 196.095 128.547 196.095 127.64V116.26C196.095 115.353 196.548 114.9 197.455 114.9H204.595C205.288 114.9 205.635 115.233 205.635 115.9C205.635 116.593 205.288 116.94 204.595 116.94H198.555V120.82H204.155C204.848 120.82 205.195 121.16 205.195 121.84C205.195 122.52 204.848 122.86 204.155 122.86H198.555V126.96H204.595C205.288 126.96 205.635 127.3 205.635 127.98C205.635 128.66 205.288 129 204.595 129H197.455Z" fill="#588CCD"/>
</g>
<g filter="url(#filter1_i_1333_8355)">
<ellipse cx="22.0764" cy="50.5674" rx="14.4567" ry="20.7887" transform="rotate(-25.8592 22.0764 50.5674)" fill="#588CCD"/>
<ellipse cx="45.0766" cy="25.1512" rx="14.4567" ry="20.7887" transform="rotate(-28.1705 45.0766 25.1512)" fill="#588CCD"/>
<path d="M66.2598 45.4106V99.9106C53.0598 104.711 48.4266 105.577 47.76 105.411C32.16 107.011 30.26 93.4106 31.26 86.4106C32.46 75.6106 38.7598 73.244 41.7598 73.4106C41.3598 52.2106 57.9264 45.9106 66.2598 45.4106Z" fill="#588CCD"/>
</g>
<defs>
<filter id="filter0_i_1333_8355" x="137.54" y="114.7" width="68.0947" height="18.5" filterUnits="userSpaceOnUse" color-interpolation-filters="sRGB">
<feFlood flood-opacity="0" result="BackgroundImageFix"/>
<feBlend mode="normal" in="SourceGraphic" in2="BackgroundImageFix" result="shape"/>
<feColorMatrix in="SourceAlpha" type="matrix" values="0 0 0 0 0 0 0 0 0 0 0 0 0 0 0 0 0 0 127 0" result="hardAlpha"/>
<feOffset dy="4"/>
<feGaussianBlur stdDeviation="2"/>
<feComposite in2="hardAlpha" operator="arithmetic" k2="-1" k3="1"/>
<feColorMatrix type="matrix" values="0 0 0 0 0 0 0 0 0 0 0 0 0 0 0 0 0 0 0.25 0"/>
<feBlend mode="normal" in2="shape" result="effect1_innerShadow_1333_8355"/>
</filter>
<filter id="filter1_i_1333_8355" x="6.21777" y="5.59009" width="60.042" height="103.95" filterUnits="userSpaceOnUse" color-interpolation-filters="sRGB">
<feFlood flood-opacity="0" result="BackgroundImageFix"/>
<feBlend mode="normal" in="SourceGraphic" in2="BackgroundImageFix" result="shape"/>
<feColorMatrix in="SourceAlpha" type="matrix" values="0 0 0 0 0 0 0 0 0 0 0 0 0 0 0 0 0 0 127 0" result="hardAlpha"/>
<feOffset dy="4"/>
<feGaussianBlur stdDeviation="2"/>
<feComposite in2="hardAlpha" operator="arithmetic" k2="-1" k3="1"/>
<feColorMatrix type="matrix" values="0 0 0 0 0 0 0 0 0 0 0 0 0 0 0 0 0 0 0.25 0"/>
<feBlend mode="normal" in2="shape" result="effect1_innerShadow_1333_8355"/>
</filter>
</defs>
</svg>
